<svg width="337" height="111" viewBox="0 0 337 111" fill="none" xmlns="http://www.w3.org/2000/svg">
<g clip-path="url(#clip0)">
<path d="M48.9448 13.0835V29.7884H40.8354V13.0835L44.8901 8.4624L48.9448 13.0835Z" fill="#CCCCCC"/>
<path d="M48.9443 39.2432V55.9481L44.8896 60.5691L40.835 55.9481V39.2432H48.9443Z" fill="#F97C64"/>
<path d="M65.7822 29.7883V39.2432H48.9447H40.8352H23.9956V29.7883H26.0623H40.8352H48.9447H63.7157H65.7822Z" fill="#F97C64"/>
<path d="M32.2438 29.7883V39.2432H28.9203H27.3196H23.9956V29.7883H24.4036H27.3196H28.9203H31.8358H32.2438Z" fill="#DD6352"/>
<path d="M63.7158 29.7884H48.9448V13.0835C52.2746 13.8105 55.275 15.415 57.6928 17.6423H57.6948C60.3598 20.0964 62.3178 23.3056 63.2276 26.9327C63.4607 27.8583 63.6252 28.8123 63.7158 29.7884Z" fill="#666666"/>
<path d="M40.8354 13.0835V29.7884H26.0625C26.1529 28.8123 26.3176 27.8585 26.5505 26.9327C27.4603 23.3058 29.4183 20.0964 32.0833 17.6423H32.0852C34.5033 15.415 37.5056 13.8103 40.8354 13.0835Z" fill="#666666"/>
<path d="M37.8204 17.6421H37.8216C39.1563 15.415 40.8136 13.8103 42.6515 13.0833H40.8354C37.5056 13.8103 34.5033 15.4148 32.0852 17.6421H32.0833C29.4183 20.0962 27.4603 23.3054 26.5505 26.9324C26.3176 27.8582 26.1529 28.8122 26.0625 29.7881H34.4973C34.547 28.812 34.6381 27.8582 34.7666 26.9324C35.2686 23.3055 36.3495 20.0963 37.8204 17.6421Z" fill="#4D4D4D"/>
<path d="M28.9686 48.7122C29.9807 50.0838 30.6856 51.586 31.1075 53.1364C29.3984 53.5361 27.7417 54.281 26.2394 55.3897C26.2032 55.4159 26.1672 55.4438 26.131 55.4719C24.7594 56.5041 23.6448 57.7513 22.7993 59.1331C20.8794 62.2539 20.3311 66.0597 21.289 69.6002C16.2581 70.779 10.7817 68.9576 7.52013 64.5374C4.25871 60.1152 4.13408 54.3454 6.74494 49.885C10.0004 51.9454 14.025 52.5018 17.7222 51.3872C19.0697 50.9836 20.3731 50.355 21.5801 49.4974C21.6483 49.4492 21.7166 49.401 21.7848 49.3508C23.2871 48.2421 24.486 46.8786 25.3736 45.3643C26.7313 46.224 27.9563 47.3425 28.9686 48.7122Z" fill="#CCCCCC"/>
<path d="M20.8346 66.5117C20.8627 67.5479 21.0134 68.5843 21.2885 69.6004C16.2576 70.7792 10.7812 68.9578 7.51964 64.5377C4.25822 60.1154 4.13359 54.3456 6.74445 49.8853C7.32276 50.2507 7.92534 50.5701 8.54584 50.8392C7.91532 54.3235 8.66625 58.049 10.9336 61.1235C13.3699 64.4231 17.0371 66.2747 20.8346 66.5117Z" fill="#F2F2F2"/>
<path d="M68.1982 49.4975C69.4051 50.355 70.7085 50.9836 72.056 51.3873C75.7553 52.5019 79.7779 51.9456 83.0333 49.8851C85.644 54.3455 85.5217 60.1153 82.2581 64.5376C78.9967 68.9578 73.5201 70.7794 68.4893 69.6004C69.4492 66.0578 68.899 62.2541 66.9811 59.1333C66.1356 57.7516 65.021 56.5064 63.6494 55.4742V55.4723C63.6132 55.4461 63.5771 55.4181 63.539 55.39C62.0368 54.2814 60.38 53.5364 58.6729 53.1367C59.0926 51.5863 59.7994 50.0841 60.8096 48.7125C61.8218 47.3428 63.0489 46.2241 64.4064 45.3647C65.292 46.8789 66.4931 48.2426 67.9932 49.3513C68.0616 49.4012 68.13 49.4494 68.1982 49.4975Z" fill="#CCCCCC"/>
<path d="M68.9431 66.5117C68.915 67.5479 68.7644 68.5843 68.4893 69.6004C73.52 70.7792 78.9964 68.9578 82.258 64.5377C85.5193 60.1154 85.644 54.3456 83.0331 49.8853C82.4548 50.2507 81.8523 50.5701 81.2318 50.8392C81.8623 54.3235 81.1112 58.049 78.844 61.1235C76.4077 64.4231 72.7406 66.2747 68.9431 66.5117Z" fill="#F2F2F2"/>
<path d="M40.496 76.3744C41.9922 77.515 43.4663 78.5795 44.8901 79.5655C36.4112 85.4477 29.6272 88.6328 29.6272 88.6328L25.9541 84.3893C31.2982 81.9975 36.14 79.2642 40.496 76.3744Z" fill="#D88948"/>
<path d="M21.5799 49.4982C20.373 50.3557 19.0696 50.9842 17.7221 51.388V51.3861C17.0172 50.1068 16.3645 48.7995 15.77 47.4639L18.4169 44.556C18.4169 44.5559 19.4491 46.4537 21.5799 49.4982Z" fill="#D88948"/>
<path d="M63.8261 84.3893L60.153 88.6328C60.153 88.6328 53.3689 85.4477 44.89 79.5654C43.4662 78.5793 41.9921 77.515 40.4958 76.3743C34.455 71.7814 28.0264 65.9815 22.7988 59.1333C23.6443 57.7517 24.759 56.5045 26.1306 55.4722C30.4604 60.7278 36.6681 67.2005 44.89 73.2917C46.2957 74.3319 47.7598 75.3622 49.2841 76.3743C53.64 79.2641 58.482 81.9975 63.8261 84.3893Z" fill="#D88948"/>
<path d="M71.3612 44.5551L74.0081 47.463C73.4136 48.7985 72.7609 50.1058 72.0561 51.3851V51.3871C70.7085 50.9835 69.4051 50.3549 68.1982 49.4973C70.329 46.4529 71.3612 44.5551 71.3612 44.5551Z" fill="#D88948"/>
<path d="M63.6491 55.4741C65.0207 56.5063 66.1354 57.7515 66.9809 59.1332C61.7533 65.9814 55.3247 71.7812 49.2838 76.3742C47.7594 75.362 46.2955 74.3318 44.8896 73.2915C53.1095 67.2004 59.3172 60.7319 63.6491 55.4741Z" fill="#D88948"/>
<path d="M32.083 17.6421C29.418 20.0961 27.46 23.3053 26.5501 26.9324C23.0256 25.4363 8.91536 18.2728 15.109 1.64612C15.109 1.64612 18.1454 14.4109 32.083 17.6421Z" fill="#CCCCCC"/>
<path d="M74.6684 1.64612C80.864 18.2726 66.7537 25.4361 63.2272 26.9324C62.3174 23.3055 60.3593 20.0961 57.6943 17.6421C71.632 14.4109 74.6684 1.64612 74.6684 1.64612Z" fill="#CCCCCC"/>
<path d="M44.8901 8.4624V29.7884H40.8354V13.0835L44.8901 8.4624Z" fill="#B3B3B3"/>
<path d="M44.8901 39.2432V60.5691L40.8354 55.9481V39.2432H44.8901Z" fill="#DD6352"/>
<path d="M24.9342 27.6597C24.9043 27.8203 24.8755 27.9808 24.8495 28.1422H24.1064C23.2747 28.1422 22.6002 28.8166 22.6002 29.6484V39.1035C22.6002 39.9353 23.2747 40.6097 24.1064 40.6097H39.4397V43.6483C39.4397 44.48 40.1142 45.1545 40.946 45.1545C41.7778 45.1545 42.4523 44.48 42.4523 43.6483V40.6097H47.5493V55.2413L45.0009 58.1457L42.4524 55.2413V48.0665C42.4524 47.2347 41.778 46.5602 40.9462 46.5602C40.1144 46.5602 39.4399 47.2347 39.4399 48.0665V55.8084C39.4399 56.1738 39.5728 56.527 39.8138 56.8019L43.8685 61.423C44.1545 61.7489 44.5672 61.9357 45.0007 61.9357C45.4344 61.9357 45.8467 61.7487 46.1329 61.423L50.1876 56.8019C50.4286 56.527 50.5615 56.1742 50.5615 55.8084V40.6097H65.8927C66.7245 40.6097 67.399 39.9353 67.399 39.1035V29.6484C67.399 28.8166 66.7247 28.1422 65.8927 28.1422H65.1497C65.1235 27.981 65.0948 27.8203 65.0651 27.6598C67.3044 26.5719 71.0404 24.3717 73.8879 20.7552C78.1825 15.3009 78.9788 8.4629 76.1906 0.980468C75.9591 0.359086 75.349 -0.0394074 74.6866 0.00295562C74.0246 0.0437366 73.4674 0.512718 73.3139 1.15765C73.2862 1.27402 70.4566 12.5939 58.2048 15.8495C55.7911 13.8001 52.9338 12.3387 49.87 11.5883L46.1326 7.32894C45.8466 7.00304 45.4338 6.81619 45.0004 6.81619C44.5669 6.81619 44.1543 7.00322 43.8682 7.32894L40.1307 11.5884C36.812 12.4011 33.7355 14.046 31.2041 16.3686C31.1939 16.3774 31.1832 16.3851 31.1732 16.3943C28.6806 18.6893 26.8201 21.5321 25.7213 24.6911C21.4124 22.4923 13.5862 16.9353 15.4704 6.22205C17.2097 9.61144 20.5182 14.1993 26.4719 17.0842C27.2204 17.4467 28.1213 17.1341 28.4842 16.3855C28.8469 15.6368 28.5342 14.736 27.7855 14.3731C18.9445 10.0892 16.7061 1.24344 16.6852 1.15783C16.5317 0.512718 15.9743 0.0439124 15.3125 0.0031314C14.6521 -0.0380011 14.04 0.359262 13.8085 0.98082C11.0212 8.46307 11.8182 15.3011 16.1128 20.7552C18.9598 24.371 22.6955 26.5716 24.9342 27.6597ZM64.3868 37.5972H25.6129V31.1547H54.2388C55.0706 31.1547 55.7451 30.4802 55.7451 29.6484C55.7451 28.8166 55.0706 28.1422 54.2388 28.1422H50.5617V14.9233C52.8586 15.6982 54.9829 16.9522 56.7831 18.6103C56.7882 18.6149 56.7938 18.6189 56.7989 18.6235C59.2992 20.9308 61.0554 23.8818 61.8777 27.1601C61.9593 27.4839 62.0283 27.8122 62.0911 28.1422H58.858C58.0262 28.1422 57.3517 28.8166 57.3517 29.6484C57.3517 30.4802 58.026 31.1547 58.858 31.1547H64.3868V37.5972ZM72.7555 9.15301C73.4737 8.12083 74.0568 7.11959 74.5265 6.20641C76.4237 16.9325 68.5895 22.4926 64.2778 24.6916C63.4608 22.3432 62.2217 20.1709 60.6158 18.2677C66.7999 16.1807 70.5964 12.2564 72.7555 9.15301ZM45.0007 10.6064L47.5492 13.5108V28.1423H42.4521V13.5108L45.0007 10.6064ZM33.1997 18.6242C33.2052 18.6195 33.211 18.6152 33.2164 18.6103C35.0166 16.952 37.1416 15.6984 39.4399 14.9233V28.1423H27.9086C27.9715 27.8122 28.0407 27.4833 28.1223 27.159C28.9439 23.8821 30.6998 20.9315 33.1997 18.6242Z" fill="black"/>
<path d="M84.4435 48.9844C84.2373 48.6318 83.8964 48.3781 83.4993 48.2816C83.1024 48.185 82.6834 48.2539 82.338 48.4724C79.9649 49.9744 77.1597 50.5717 74.418 50.1987C74.7974 49.4458 75.1588 48.6895 75.4943 47.9357C75.7376 47.3894 75.6348 46.7515 75.2323 46.3092L72.5854 43.4013C72.2574 43.0409 71.775 42.8627 71.2916 42.9202C70.8081 42.9784 70.3821 43.2672 70.1489 43.6948C70.1404 43.7103 69.4222 45.0185 67.9873 47.1607C67.1341 46.3727 66.4058 45.4707 65.8171 44.4642C65.611 44.1114 65.2701 43.8576 64.8729 43.7611C64.4763 43.6648 64.0565 43.7333 63.7113 43.9522C62.1534 44.9387 60.8067 46.1918 59.7072 47.6796C58.6109 49.1683 57.8111 50.8248 57.3294 52.6034C57.2226 52.9977 57.2806 53.4185 57.4899 53.7692C57.6991 54.12 58.0422 54.3707 58.4398 54.4637C59.5235 54.7175 60.5529 55.1223 61.5176 55.6655C56.5987 61.4435 51.0515 66.6818 45.0004 71.267C38.9529 66.6851 33.406 61.4467 28.484 55.6641C29.4482 55.1216 30.4772 54.7171 31.5607 54.4637C31.9586 54.3707 32.3019 54.1197 32.5111 53.7686C32.7206 53.4174 32.7783 52.9962 32.6707 52.6018C32.1854 50.8178 31.3845 49.1616 30.29 47.6777C29.191 46.1906 27.845 44.9371 26.2894 43.9525C25.9442 43.734 25.5249 43.6651 25.1284 43.7613C24.7315 43.8576 24.3908 44.1109 24.1843 44.4634C23.5926 45.4725 22.8633 46.3755 22.0116 47.1618C20.5766 45.0193 19.8581 43.7108 19.8501 43.6961C19.6171 43.2679 19.1916 42.9789 18.7075 42.9205C18.2239 42.8613 17.7411 43.0415 17.4132 43.402L14.7663 46.3099C14.3641 46.752 14.261 47.3903 14.5041 47.9362C14.8396 48.6902 15.2009 49.4467 15.5805 50.1998C12.8403 50.5731 10.0343 49.9756 7.66044 48.4731C7.31503 48.2546 6.89562 48.1855 6.49906 48.2823C6.10197 48.3787 5.76114 48.6323 5.55495 48.9851C2.55421 54.1119 2.89294 60.513 6.41785 65.2928C9.25494 69.1378 13.7041 71.3213 18.3471 71.3213C19.4741 71.3213 20.6124 71.1926 21.7421 70.9281C22.1396 70.8349 22.4824 70.5843 22.6919 70.2336C22.9011 69.8829 22.9592 69.4624 22.8525 69.0682C22.2009 66.6598 22.3402 64.107 23.2078 61.8C25.8164 64.9934 28.8262 68.1474 32.1833 71.2004C32.4719 71.4628 32.8345 71.5922 33.1961 71.5922C33.6057 71.5922 34.0137 71.4261 34.3109 71.0993C34.8706 70.4839 34.8254 69.5312 34.2098 68.9715C30.6241 65.7104 27.4525 62.3368 24.7675 58.9315C25.1554 58.4071 25.5879 57.9181 26.06 57.4646C31.4048 63.7673 37.4683 69.4477 44.1038 74.3635C45.5654 75.4451 47.065 76.4972 48.561 77.4905C52.6938 80.2325 57.0331 82.6799 61.4844 84.7811L59.8856 86.6282C57.7042 85.5238 52.2526 82.6249 45.8574 78.1885C44.3667 77.1563 42.9072 76.0962 41.5174 75.0364C40.304 74.1143 39.1074 73.1665 37.961 72.2199C37.3197 71.6903 36.3702 71.7808 35.8407 72.4224C35.3109 73.0638 35.4018 74.0132 36.0432 74.5428C36.6841 75.0719 37.341 75.601 38.0062 76.1259C33.9738 78.6805 29.7586 80.947 25.449 82.8759C25.0139 83.0705 24.6968 83.4595 24.5938 83.9246C24.4906 84.3897 24.6137 84.8762 24.9253 85.2366L28.5986 89.4801C28.8916 89.8188 29.3107 90.0006 29.7378 90.0006C29.9539 90.0006 30.1722 89.954 30.3775 89.8579C30.6496 89.7301 36.9249 86.7629 45.0004 81.2548C53.0759 86.7629 59.3513 89.7302 59.6234 89.8579C59.8283 89.954 60.0466 90.0006 60.263 90.0006C60.6902 90.0006 61.1092 89.8187 61.4023 89.4801L65.0754 85.2366C65.3872 84.8762 65.5104 84.3899 65.407 83.9246C65.3039 83.4595 64.9868 83.0706 64.5519 82.8759C60.2416 80.9467 56.0259 78.6798 51.9933 76.125C57.7884 71.553 62.7512 66.7479 66.7913 61.7993C67.6591 64.1077 67.7982 66.6607 67.1459 69.0676C67.039 69.4619 67.0968 69.8826 67.3062 70.2334C67.5154 70.5843 67.8583 70.8349 68.2559 70.9281C69.3858 71.1928 70.5236 71.3213 71.6509 71.3213C76.2938 71.3213 80.7435 69.1378 83.58 65.2931C87.1063 60.514 87.4451 54.1128 84.4435 48.9844ZM18.273 46.9324C18.6159 47.4818 19.0448 48.1477 19.5579 48.9113C19.2294 49.0878 18.8926 49.2465 18.5498 49.3903C18.2413 48.796 17.9443 48.199 17.6639 47.6017L18.273 46.9324ZM8.84256 63.5037C6.32768 60.0935 5.84762 55.6479 7.49063 51.8219C10.8303 53.4494 14.6742 53.7728 18.2647 52.6902C19.7968 52.2313 21.2429 51.5232 22.5694 50.5809C22.6418 50.5297 22.7144 50.4782 22.7896 50.423C23.9723 49.5503 25.0043 48.5244 25.8719 47.3614C26.6176 47.9758 27.2857 48.6803 27.8667 49.4668C28.4459 50.2516 28.922 51.0978 29.2898 51.9947C27.925 52.4793 26.6427 53.1615 25.4671 54.0293C25.4202 54.0632 25.3727 54.0996 25.3256 54.1362C23.8355 55.2594 22.5901 56.6293 21.6246 58.2072C21.6195 58.2155 21.6151 58.2239 21.6101 58.2322C21.6056 58.2401 21.6006 58.2479 21.5963 58.2559C19.7752 61.2437 19.0773 64.8023 19.6045 68.2409C15.4642 68.6816 11.358 66.9133 8.84256 63.5037ZM30.1142 86.6272L28.5156 84.7804C32.6473 82.8302 36.6799 80.5781 40.543 78.0725C41.1382 78.5177 41.7446 78.9614 42.3585 79.4028C36.755 83.1499 32.0917 85.6256 30.1142 86.6272ZM71.7256 46.9324L72.3347 47.6017C72.0542 48.199 71.7571 48.7963 71.4486 49.3905C71.106 49.2469 70.7692 49.088 70.4407 48.9115C70.954 48.1479 71.3825 47.4818 71.7256 46.9324ZM49.3346 74.3787C48.7314 73.9687 48.1298 73.5499 47.5311 73.1243C53.5324 68.4976 59.0408 63.2425 63.9402 57.466C64.412 57.9186 64.8439 58.4069 65.2314 58.9301C61.0224 64.271 55.6819 69.4602 49.3346 74.3787ZM81.1564 63.5035C78.6408 66.9129 74.5348 68.6825 70.3948 68.2408C70.9257 64.7849 70.2187 61.2052 68.3763 58.2074C67.4101 56.6286 66.1617 55.2568 64.6654 54.1311L64.6428 54.1125L64.5438 54.0383C63.3594 53.1641 62.075 52.4803 60.7099 51.995C61.0765 51.1005 61.5524 50.2544 62.1316 49.4678C62.7127 48.6814 63.3812 47.9767 64.1283 47.3618C64.9938 48.5226 66.0258 49.5487 67.2114 50.4246C67.2824 50.4768 67.3536 50.5272 67.4364 50.5856C68.756 51.5232 70.2021 52.2314 71.7323 52.6897C75.3259 53.7723 79.1697 53.4489 82.5087 51.8219C84.1517 55.6488 83.672 60.0946 81.1564 63.5035Z" fill="black"/>
</g>
<path d="M100.164 22.12H114.564V55.08C114.564 58.1733 115.577 60.92 117.604 63.32C118.244 64.12 119.284 65.0267 120.724 66.04V22.12H135.204V63.16L117.524 81C110.911 76.2 107.071 73.2133 106.004 72.04C102.111 67.7733 100.164 62.2533 100.164 55.48V22.12ZM138.211 81V22.12H153.331V81H138.211ZM156.414 22.12H170.894V45.88C172.494 45.88 173.694 45.32 174.494 44.2C175.294 43.0267 175.694 41.5867 175.694 39.88C175.694 38.5467 175.427 37.24 174.894 35.96C174.361 34.6267 173.614 33.6133 172.654 32.92L183.214 21.88C184.654 22.9467 186.014 24.7333 187.294 27.24C188.574 29.7467 189.214 32.2267 189.214 34.68C189.214 37.24 188.467 39.7733 186.974 42.28C185.534 44.7333 183.641 46.7333 181.294 48.28C184.547 49.8267 186.894 51.48 188.334 53.24C190.361 55.7467 191.374 59.1867 191.374 63.56V81H176.894V74.52C176.894 68.3333 176.601 63.9067 176.014 61.24C175.107 57.1333 173.374 55.08 170.814 55.08V81H156.414V22.12ZM194.461 81V22.12H209.581V81H194.461ZM238.744 50.44V22.12H249.544V81H235.384L223.704 47.88V81H212.664V30.6L228.264 22.12L238.744 50.44ZM272.184 81C270.744 81 269.064 80.7067 267.144 80.12C263.357 78.9467 260.237 77.0267 257.784 74.36C254.371 70.5733 252.664 65.5867 252.664 59.4C252.664 53.4267 252.637 48.44 252.584 44.44C252.531 40.3867 252.424 36.6 252.264 33.08L267.464 22.04C269.597 22.04 272.077 23.1867 274.904 25.48C277.464 27.56 279.331 29.64 280.504 31.72L272.264 44.52C272.264 43.3467 271.331 41.5067 269.464 39C267.651 36.4933 266.264 35.24 265.304 35.24L265.224 55C265.224 58.04 265.997 60.52 267.544 62.44C268.877 64.0933 270.237 64.92 271.624 64.92V49.96H285.144V65.88L272.184 81ZM321.193 50.36L312.633 55.56C314.34 55.56 316.127 56.68 317.993 58.92C320.127 61.48 321.193 64.3067 321.193 67.4V81H307.753C307.753 74.44 307.54 70.1467 307.113 68.12C306.313 64.3333 304.527 62.44 301.753 62.44V81H287.273V33.32L301.913 22.12C307.087 22.12 311.433 24.2533 314.953 28.52C319.113 33.5867 321.193 40.8667 321.193 50.36ZM301.753 34.28V53.64L307.673 50.12V45.8C307.673 44.0933 307.62 42.8133 307.513 41.96C307.46 41.0533 307.273 40.28 306.953 39.64C306.26 37.9867 305.513 36.7333 304.713 35.88C303.753 34.8133 302.767 34.28 301.753 34.28Z" fill="white"/>
<path d="M100.164 22.12V21.12H99.1641V22.12H100.164ZM114.564 22.12H115.564V21.12H114.564V22.12ZM117.604 63.32L118.385 62.6953L118.377 62.6849L118.368 62.6748L117.604 63.32ZM120.724 66.04L120.149 66.8578L121.724 67.9665V66.04H120.724ZM120.724 22.12V21.12H119.724V22.12H120.724ZM135.204 22.12H136.204V21.12H135.204V22.12ZM135.204 63.16L135.914 63.8639L136.204 63.5716V63.16H135.204ZM117.524 81L116.937 81.8093L117.631 82.313L118.234 81.7039L117.524 81ZM106.004 72.04L106.744 71.3673L106.743 71.3659L106.004 72.04ZM100.164 23.12H114.564V21.12H100.164V23.12ZM113.564 22.12V55.08H115.564V22.12H113.564ZM113.564 55.08C113.564 58.4135 114.664 61.3878 116.84 63.9652L118.368 62.6748C116.491 60.4522 115.564 57.9332 115.564 55.08H113.564ZM116.823 63.9447C117.55 64.8528 118.678 65.8231 120.149 66.8578L121.3 65.2222C119.89 64.2302 118.938 63.3872 118.385 62.6953L116.823 63.9447ZM121.724 66.04V22.12H119.724V66.04H121.724ZM120.724 23.12H135.204V21.12H120.724V23.12ZM134.204 22.12V63.16H136.204V22.12H134.204ZM134.494 62.4561L116.814 80.2961L118.234 81.7039L135.914 63.8639L134.494 62.4561ZM118.111 80.1907C114.809 77.7935 112.205 75.8542 110.298 74.3706C108.365 72.8674 107.209 71.8792 106.744 71.3673L105.264 72.7127C105.865 73.3741 107.163 74.4659 109.07 75.9494C111.003 77.4525 113.626 79.4065 116.937 81.8093L118.111 80.1907ZM106.743 71.3659C103.046 67.3148 101.164 62.0497 101.164 55.48H99.1641C99.1641 62.457 101.175 68.2319 105.265 72.7141L106.743 71.3659ZM101.164 55.48V22.12H99.1641V55.48H101.164ZM138.211 81H137.211V82H138.211V81ZM138.211 22.12V21.12H137.211V22.12H138.211ZM153.331 22.12H154.331V21.12H153.331V22.12ZM153.331 81V82H154.331V81H153.331ZM139.211 81V22.12H137.211V81H139.211ZM138.211 23.12H153.331V21.12H138.211V23.12ZM152.331 22.12V81H154.331V22.12H152.331ZM153.331 80H138.211V82H153.331V80ZM156.414 22.12V21.12H155.414V22.12H156.414ZM170.894 22.12H171.894V21.12H170.894V22.12ZM170.894 45.88H169.894V46.88H170.894V45.88ZM174.494 44.2L175.308 44.7812L175.314 44.7724L175.32 44.7633L174.494 44.2ZM174.894 35.96L173.966 36.3314L173.968 36.338L173.971 36.3446L174.894 35.96ZM172.654 32.92L171.931 32.2288L171.138 33.0585L172.069 33.7307L172.654 32.92ZM183.214 21.88L183.809 21.0764L183.101 20.5517L182.491 21.1888L183.214 21.88ZM187.294 27.24L188.185 26.7852L188.185 26.7852L187.294 27.24ZM186.974 42.28L186.115 41.7682L186.112 41.7738L186.974 42.28ZM181.294 48.28L180.744 47.445L179.262 48.4214L180.865 49.1831L181.294 48.28ZM188.334 53.24L189.112 52.6113L189.108 52.6068L188.334 53.24ZM191.374 81V82H192.374V81H191.374ZM176.894 81H175.894V82H176.894V81ZM176.014 61.24L176.991 61.0251L176.991 61.0244L176.014 61.24ZM170.814 55.08V54.08H169.814V55.08H170.814ZM170.814 81V82H171.814V81H170.814ZM156.414 81H155.414V82H156.414V81ZM156.414 23.12H170.894V21.12H156.414V23.12ZM169.894 22.12V45.88H171.894V22.12H169.894ZM170.894 46.88C172.757 46.88 174.288 46.2094 175.308 44.7812L173.68 43.6188C173.1 44.4306 172.231 44.88 170.894 44.88V46.88ZM175.32 44.7633C176.255 43.3929 176.694 41.7464 176.694 39.88H174.694C174.694 41.4269 174.333 42.6605 173.668 43.6367L175.32 44.7633ZM176.694 39.88C176.694 38.4094 176.399 36.9723 175.817 35.5754L173.971 36.3446C174.456 37.5077 174.694 38.684 174.694 39.88H176.694ZM175.823 35.5886C175.234 34.117 174.383 32.9352 173.24 32.1093L172.069 33.7307C172.845 34.2915 173.488 35.1364 173.966 36.3314L175.823 35.5886ZM173.377 33.6112L183.937 22.5712L182.491 21.1888L171.931 32.2288L173.377 33.6112ZM182.619 22.6836C183.884 23.6206 185.158 25.2551 186.403 27.6948L188.185 26.7852C186.87 24.2116 185.424 22.2727 183.809 21.0764L182.619 22.6836ZM186.403 27.6948C187.622 30.0815 188.214 32.4066 188.214 34.68H190.214C190.214 32.0467 189.526 29.4119 188.185 26.7852L186.403 27.6948ZM188.214 34.68C188.214 37.0358 187.529 39.3943 186.115 41.7682L187.833 42.7918C189.406 40.1524 190.214 37.4442 190.214 34.68H188.214ZM186.112 41.7738C184.748 44.0968 182.961 45.9837 180.744 47.445L181.844 49.115C184.32 47.483 186.32 45.3699 187.836 42.7862L186.112 41.7738ZM180.865 49.1831C184.054 50.6994 186.252 52.275 187.56 53.8732L189.108 52.6068C187.536 50.685 185.041 48.9539 181.723 47.3769L180.865 49.1831ZM187.556 53.8687C189.395 56.1431 190.374 59.3342 190.374 63.56H192.374C192.374 59.0391 191.326 55.3502 189.112 52.6113L187.556 53.8687ZM190.374 63.56V81H192.374V63.56H190.374ZM191.374 80H176.894V82H191.374V80ZM177.894 81V74.52H175.894V81H177.894ZM177.894 74.52C177.894 68.3285 177.603 63.8068 176.991 61.0251L175.037 61.4549C175.599 64.0065 175.894 68.3382 175.894 74.52H177.894ZM176.991 61.0244C176.52 58.8936 175.812 57.1761 174.798 55.9749C173.752 54.736 172.405 54.08 170.814 54.08V56.08C171.783 56.08 172.582 56.4507 173.27 57.2651C173.989 58.1172 174.601 59.4797 175.038 61.4556L176.991 61.0244ZM169.814 55.08V81H171.814V55.08H169.814ZM170.814 80H156.414V82H170.814V80ZM157.414 81V22.12H155.414V81H157.414ZM194.461 81H193.461V82H194.461V81ZM194.461 22.12V21.12H193.461V22.12H194.461ZM209.581 22.12H210.581V21.12H209.581V22.12ZM209.581 81V82H210.581V81H209.581ZM195.461 81V22.12H193.461V81H195.461ZM194.461 23.12H209.581V21.12H194.461V23.12ZM208.581 22.12V81H210.581V22.12H208.581ZM209.581 80H194.461V82H209.581V80ZM238.744 50.44L237.806 50.7871L239.744 50.44H238.744ZM238.744 22.12V21.12H237.744V22.12H238.744ZM249.544 22.12H250.544V21.12H249.544V22.12ZM249.544 81V82H250.544V81H249.544ZM235.384 81L234.441 81.3326L234.676 82H235.384V81ZM223.704 47.88L224.647 47.5474L222.704 47.88H223.704ZM223.704 81V82H224.704V81H223.704ZM212.664 81H211.664V82H212.664V81ZM212.664 30.6L212.186 29.7214L211.664 30.0054V30.6H212.664ZM228.264 22.12L229.202 21.7729L228.801 20.6899L227.786 21.2414L228.264 22.12ZM239.744 50.44V22.12H237.744V50.44H239.744ZM238.744 23.12H249.544V21.12H238.744V23.12ZM248.544 22.12V81H250.544V22.12H248.544ZM249.544 80H235.384V82H249.544V80ZM236.327 80.6674L224.647 47.5474L222.761 48.2126L234.441 81.3326L236.327 80.6674ZM222.704 47.88V81H224.704V47.88H222.704ZM223.704 80H212.664V82H223.704V80ZM213.664 81V30.6H211.664V81H213.664ZM213.142 31.4786L228.742 22.9986L227.786 21.2414L212.186 29.7214L213.142 31.4786ZM227.326 22.4671L237.806 50.7871L239.682 50.0929L229.202 21.7729L227.326 22.4671ZM272.184 81V82H272.644L272.943 81.6508L272.184 81ZM267.144 80.12L266.848 81.0752L266.852 81.0764L267.144 80.12ZM257.784 74.36L257.041 75.0296L257.048 75.0371L257.784 74.36ZM252.584 44.44L251.584 44.4532L251.584 44.4533L252.584 44.44ZM252.264 33.08L251.676 32.2709L251.241 32.5874L251.265 33.1254L252.264 33.08ZM267.464 22.04V21.04H267.139L266.876 21.2309L267.464 22.04ZM274.904 25.48L275.535 24.7039L275.534 24.7034L274.904 25.48ZM280.504 31.72L281.345 32.2613L281.671 31.7541L281.375 31.2287L280.504 31.72ZM272.264 44.52H271.264V47.9208L273.105 45.0613L272.264 44.52ZM269.464 39L268.654 39.5862L268.662 39.5973L269.464 39ZM265.304 35.24V34.24H264.308L264.304 35.2359L265.304 35.24ZM265.224 55L264.224 54.9959V55H265.224ZM267.544 62.44L266.765 63.0673L266.766 63.0678L267.544 62.44ZM271.624 64.92V65.92H272.624V64.92H271.624ZM271.624 49.96V48.96H270.624V49.96H271.624ZM285.144 49.96H286.144V48.96H285.144V49.96ZM285.144 65.88L285.903 66.5308L286.144 66.2499V65.88H285.144ZM272.184 80C270.874 80 269.296 79.7319 267.436 79.1636L266.852 81.0764C268.832 81.6815 270.615 82 272.184 82V80ZM267.44 79.1648C263.806 78.0387 260.843 76.2077 258.52 73.6829L257.048 75.0371C259.632 77.8457 262.909 79.8547 266.848 81.0752L267.44 79.1648ZM258.527 73.6905C255.313 70.1249 253.664 65.3948 253.664 59.4H251.664C251.664 65.7785 253.429 71.0218 257.041 75.0295L258.527 73.6905ZM253.664 59.4C253.664 53.4242 253.637 48.4327 253.584 44.4267L251.584 44.4533C251.637 48.4473 251.664 53.4292 251.664 59.4H253.664ZM253.584 44.4268C253.531 40.3643 253.424 36.5668 253.263 33.0346L251.265 33.1254C251.425 36.6332 251.531 40.409 251.584 44.4532L253.584 44.4268ZM252.852 33.8891L268.052 22.8491L266.876 21.2309L251.676 32.2709L252.852 33.8891ZM267.464 23.04C269.255 23.04 271.511 24.0149 274.274 26.2566L275.534 24.7034C272.644 22.3584 269.94 21.04 267.464 21.04V23.04ZM274.273 26.2561C276.771 28.2851 278.54 30.2735 279.633 32.2113L281.375 31.2287C280.122 29.0065 278.157 26.8349 275.535 24.7039L274.273 26.2561ZM279.663 31.1787L271.423 43.9787L273.105 45.0613L281.345 32.2613L279.663 31.1787ZM273.264 44.52C273.264 43.6985 272.947 42.7766 272.456 41.8076C271.954 40.8181 271.218 39.681 270.266 38.4027L268.662 39.5973C269.577 40.8257 270.241 41.8619 270.672 42.7124C271.114 43.5834 271.264 44.1681 271.264 44.52H273.264ZM270.274 38.4139C269.35 37.1355 268.502 36.1321 267.735 35.4381C267.008 34.7818 266.179 34.24 265.304 34.24V36.24C265.389 36.24 265.733 36.3249 266.394 36.9219C267.012 37.4812 267.765 38.3578 268.654 39.5861L270.274 38.4139ZM264.304 35.2359L264.224 54.996L266.224 55.004L266.304 35.244L264.304 35.2359ZM264.224 55C264.224 58.2135 265.045 60.9312 266.765 63.0673L268.323 61.8127C266.95 60.1088 266.224 57.8665 266.224 55H264.224ZM266.766 63.0678C268.186 64.8295 269.803 65.92 271.624 65.92V63.92C270.672 63.92 269.568 63.3572 268.322 61.8122L266.766 63.0678ZM272.624 64.92V49.96H270.624V64.92H272.624ZM271.624 50.96H285.144V48.96H271.624V50.96ZM284.144 49.96V65.88H286.144V49.96H284.144ZM284.385 65.2292L271.425 80.3492L272.943 81.6508L285.903 66.5308L284.385 65.2292ZM321.193 50.36L321.713 51.2147L322.193 50.9226V50.36H321.193ZM312.633 55.56L312.114 54.7053L309.061 56.56H312.633V55.56ZM317.993 58.92L317.225 59.5602L317.225 59.5602L317.993 58.92ZM321.193 81V82H322.193V81H321.193ZM307.753 81H306.753V82H307.753V81ZM307.113 68.12L308.092 67.914L308.092 67.9133L307.113 68.12ZM301.753 62.44V61.44H300.753V62.44H301.753ZM301.753 81V82H302.753V81H301.753ZM287.273 81H286.273V82H287.273V81ZM287.273 33.32L286.666 32.5258L286.273 32.826V33.32H287.273ZM301.913 22.12V21.12H301.575L301.306 21.3258L301.913 22.12ZM314.953 28.52L315.726 27.8854L315.725 27.8836L314.953 28.52ZM301.753 34.28V33.28H300.753V34.28H301.753ZM301.753 53.64H300.753V55.398L302.265 54.4995L301.753 53.64ZM307.673 50.12L308.185 50.9795L308.673 50.6888V50.12H307.673ZM307.513 41.96L306.515 42.0187L306.517 42.0515L306.521 42.084L307.513 41.96ZM306.953 39.64L306.031 40.0267L306.044 40.0574L306.059 40.0872L306.953 39.64ZM304.713 35.88L303.97 36.549L303.977 36.5565L303.984 36.5639L304.713 35.88ZM320.674 49.5053L312.114 54.7053L313.153 56.4147L321.713 51.2147L320.674 49.5053ZM312.633 56.56C313.888 56.56 315.419 57.3927 317.225 59.5602L318.762 58.2798C316.835 55.9673 314.793 54.56 312.633 54.56V56.56ZM317.225 59.5602C319.221 61.9554 320.193 64.5593 320.193 67.4H322.193C322.193 64.054 321.032 61.0046 318.762 58.2798L317.225 59.5602ZM320.193 67.4V81H322.193V67.4H320.193ZM321.193 80H307.753V82H321.193V80ZM308.753 81C308.753 74.4621 308.544 70.0609 308.092 67.914L306.135 68.326C306.536 70.2324 306.753 74.4179 306.753 81H308.753ZM308.092 67.9133C307.671 65.9218 306.967 64.304 305.901 63.1737C304.805 62.0126 303.395 61.44 301.753 61.44V63.44C302.885 63.44 303.755 63.814 304.446 64.5463C305.166 65.3093 305.756 66.5315 306.135 68.3267L308.092 67.9133ZM300.753 62.44V81H302.753V62.44H300.753ZM301.753 80H287.273V82H301.753V80ZM288.273 81V33.32H286.273V81H288.273ZM287.881 34.1142L302.521 22.9142L301.306 21.3258L286.666 32.5258L287.881 34.1142ZM301.913 23.12C306.765 23.12 310.837 25.1018 314.182 29.1564L315.725 27.8836C312.03 23.4049 307.408 21.12 301.913 21.12V23.12ZM314.181 29.1546C318.14 33.9773 320.193 40.997 320.193 50.36H322.193C322.193 40.7363 320.087 33.196 315.726 27.8854L314.181 29.1546ZM300.753 34.28V53.64H302.753V34.28H300.753ZM302.265 54.4995L308.185 50.9795L307.162 49.2605L301.242 52.7805L302.265 54.4995ZM308.673 50.12V45.8H306.673V50.12H308.673ZM308.673 45.8C308.673 44.0838 308.62 42.7532 308.506 41.836L306.521 42.084C306.62 42.8735 306.673 44.1028 306.673 45.8H308.673ZM308.512 41.9013C308.452 40.8945 308.242 39.9818 307.848 39.1928L306.059 40.0872C306.305 40.5782 306.468 41.2122 306.515 42.0187L308.512 41.9013ZM307.876 39.2533C307.158 37.5424 306.356 36.1697 305.443 35.1961L303.984 36.5639C304.671 37.297 305.362 38.4309 306.031 40.0267L307.876 39.2533ZM305.457 35.211C304.388 34.0238 303.152 33.28 301.753 33.28V35.28C302.381 35.28 303.119 35.6029 303.97 36.549L305.457 35.211Z" fill="black"/>
<defs>
<clipPath id="clip0">
<rect width="90" height="90" fill="white"/>
</clipPath>
</defs>
</svg>
